<svg version="1.1" id="Layer_1" xmlns="http://www.w3.org/2000/svg" xmlns:xlink="http://www.w3.org/1999/xlink" x="0px" y="0px"
	 width="100%" viewBox="0 0 367 355" enable-background="new 0 0 367 355" xml:space="preserve">
<path fill="#000000" opacity="1.000000" stroke="none" 
	d="
M211.000000,356.000000 
	C140.690842,356.000000 70.881683,356.000000 1.036263,356.000000 
	C1.036263,237.731812 1.036263,119.463615 1.036263,1.097710 
	C123.225769,1.097710 245.451645,1.097710 367.838745,1.097710 
	C367.838745,119.333160 367.838745,237.666565 367.838745,356.000000 
	C315.797028,356.000000 263.648499,356.000000 211.000000,356.000000 
M145.500000,218.998932 
	C157.332092,218.998932 169.168167,219.192047 180.995239,218.948441 
	C194.740921,218.665283 206.872604,214.639084 216.055725,203.522690 
	C230.010040,186.630661 227.887741,164.448914 212.690582,149.482742 
	C204.338654,141.257751 193.266434,138.100525 181.599945,138.044922 
	C153.270218,137.909897 124.939255,137.952103 96.609261,138.055801 
	C92.538010,138.070724 88.310440,138.249374 84.426758,139.329041 
	C66.260742,144.379166 50.703056,160.960464 52.907642,182.168884 
	C54.242790,195.013245 60.912338,204.122910 70.901810,211.425522 
	C79.610306,217.791718 89.691231,218.918045 100.004791,218.977203 
	C114.836082,219.062286 129.668228,218.998932 145.500000,218.998932 
M302.981415,149.480682 
	C294.697388,141.805588 284.961060,138.806732 273.646698,138.860199 
	C256.502991,138.941223 236.525818,154.047318 235.103043,174.520218 
	C233.369553,199.464401 251.684372,217.108932 275.176178,217.699570 
	C291.385651,218.107101 304.136475,210.088959 312.167908,195.481323 
	C318.986389,183.079773 318.045868,162.166016 302.981415,149.480682 
z"/>
<path fill="#FFFFFF" opacity="1.000000" stroke="none" 
	d="
M145.000000,218.998932 
	C129.668228,218.998932 114.836082,219.062286 100.004791,218.977203 
	C89.691231,218.918045 79.610306,217.791718 70.901810,211.425522 
	C60.912338,204.122910 54.242790,195.013245 52.907642,182.168884 
	C50.703056,160.960464 66.260742,144.379166 84.426758,139.329041 
	C88.310440,138.249374 92.538010,138.070724 96.609261,138.055801 
	C124.939255,137.952103 153.270218,137.909897 181.599945,138.044922 
	C193.266434,138.100525 204.338654,141.257751 212.690582,149.482742 
	C227.887741,164.448914 230.010040,186.630661 216.055725,203.522690 
	C206.872604,214.639084 194.740921,218.665283 180.995239,218.948441 
	C169.168167,219.192047 157.332092,218.998932 145.000000,218.998932 
M145.003036,161.708908 
	C145.003036,173.122849 145.003036,184.536774 145.003036,195.835892 
	C147.652008,195.835892 149.610382,195.835892 152.135834,195.835892 
	C152.135834,191.813873 152.135834,187.941330 152.135834,184.001007 
	C156.699570,184.001007 160.699463,184.145523 164.684204,183.961670 
	C168.947037,183.764999 172.215530,184.695786 175.677017,187.882477 
	C185.530823,196.954071 185.824005,196.681335 194.218048,195.342728 
	C191.389450,193.336670 188.848312,191.691193 186.488998,189.816833 
	C184.169922,187.974396 182.035431,185.899628 178.779785,183.000595 
	C182.608765,183.000595 185.033600,183.079529 187.451477,182.983490 
	C191.925171,182.805817 195.370102,180.680695 196.787598,176.470154 
	C199.798737,167.525879 194.195236,160.025818 184.748459,160.005081 
	C172.920776,159.979126 161.092880,159.974167 149.265411,160.031784 
	C147.861069,160.038635 146.458908,160.495193 145.003036,161.708908 
M82.713379,160.002869 
	C82.143150,160.600876 81.080620,161.194733 81.075516,161.797531 
	C80.977150,173.417603 81.002701,185.038696 81.002701,196.791245 
	C83.833763,196.791245 86.238625,196.791245 89.039658,196.791245 
	C89.039658,192.178101 89.039658,187.756638 89.039658,182.962326 
	C103.518593,182.962326 117.604347,182.962326 131.791458,182.962326 
	C131.791458,180.827148 131.791458,179.089172 131.791458,176.954956 
	C117.505692,176.954956 103.422440,176.954956 89.225266,176.954956 
	C89.225266,173.149399 89.225266,169.745514 89.225266,165.952209 
	C103.863060,165.952209 118.282730,165.952209 132.788757,165.952209 
	C132.788757,163.818451 132.788757,162.080276 132.788757,159.999222 
	C116.278351,159.999222 99.979317,159.999222 82.713379,160.002869 
z"/>
<path fill="#01768A" opacity="1.000000" stroke="none" 
	d="
M303.234070,149.736145 
	C318.045868,162.166016 318.986389,183.079773 312.167908,195.481323 
	C304.136475,210.088959 291.385651,218.107101 275.176178,217.699570 
	C251.684372,217.108932 233.369553,199.464401 235.103043,174.520218 
	C236.525818,154.047318 256.502991,138.941223 273.646698,138.860199 
	C284.961060,138.806732 294.697388,141.805588 303.234070,149.736145 
M280.118530,190.448273 
	C280.118530,183.351669 280.118530,176.255051 280.118530,168.729004 
	C288.093750,168.729004 295.505707,168.729004 303.078491,168.729004 
	C303.078491,165.940536 303.078491,163.605667 303.078491,161.403641 
	C284.433136,161.403641 266.238647,161.403641 247.985321,161.403641 
	C247.985321,163.996613 247.985321,166.234482 247.985321,168.904175 
	C255.738266,168.904175 263.148071,168.904175 271.068542,168.904175 
	C271.068542,179.045410 271.068542,188.763718 271.068542,198.646545 
	C274.306335,198.646545 277.016205,198.646545 280.118591,198.646545 
	C280.118591,196.028778 280.118591,193.728424 280.118530,190.448273 
z"/>
<path fill="#000000" opacity="1.000000" stroke="none" 
	d="
M145.029388,161.226105 
	C146.458908,160.495193 147.861069,160.038635 149.265411,160.031784 
	C161.092880,159.974167 172.920776,159.979126 184.748459,160.005081 
	C194.195236,160.025818 199.798737,167.525879 196.787598,176.470154 
	C195.370102,180.680695 191.925171,182.805817 187.451477,182.983490 
	C185.033600,183.079529 182.608765,183.000595 178.779785,183.000595 
	C182.035431,185.899628 184.169922,187.974396 186.488998,189.816833 
	C188.848312,191.691193 191.389450,193.336670 194.218048,195.342728 
	C185.824005,196.681335 185.530823,196.954071 175.677017,187.882477 
	C172.215530,184.695786 168.947037,183.764999 164.684204,183.961670 
	C160.699463,184.145523 156.699570,184.001007 152.135834,184.001007 
	C152.135834,187.941330 152.135834,191.813873 152.135834,195.835892 
	C149.610382,195.835892 147.652008,195.835892 145.003036,195.835892 
	C145.003036,184.536774 145.003036,173.122849 145.029388,161.226105 
M152.061203,178.271118 
	C161.927536,178.513443 171.793320,178.788437 181.660904,178.956635 
	C182.889648,178.977585 184.116180,178.271423 185.364166,178.179474 
	C189.348709,177.885880 190.181992,175.080246 189.874329,172.005661 
	C189.581802,169.082138 188.563156,166.185287 184.746872,165.998337 
	C177.878281,165.661850 171.011948,165.132446 164.140015,165.043716 
	C151.986954,164.886780 151.985489,164.999725 152.061203,178.271118 
z"/>
<path fill="#000000" opacity="1.000000" stroke="none" 
	d="
M83.196831,160.001038 
	C99.979317,159.999222 116.278351,159.999222 132.788757,159.999222 
	C132.788757,162.080276 132.788757,163.818451 132.788757,165.952209 
	C118.282730,165.952209 103.863060,165.952209 89.225266,165.952209 
	C89.225266,169.745514 89.225266,173.149399 89.225266,176.954956 
	C103.422440,176.954956 117.505692,176.954956 131.791458,176.954956 
	C131.791458,179.089172 131.791458,180.827148 131.791458,182.962326 
	C117.604347,182.962326 103.518593,182.962326 89.039658,182.962326 
	C89.039658,187.756638 89.039658,192.178101 89.039658,196.791245 
	C86.238625,196.791245 83.833763,196.791245 81.002701,196.791245 
	C81.002701,185.038696 80.977150,173.417603 81.075516,161.797531 
	C81.080620,161.194733 82.143150,160.600876 83.196831,160.001038 
z"/>
<path fill="#F1F7F8" opacity="1.000000" stroke="none" 
	d="
M280.118561,190.938171 
	C280.118591,193.728424 280.118591,196.028778 280.118591,198.646545 
	C277.016205,198.646545 274.306335,198.646545 271.068542,198.646545 
	C271.068542,188.763718 271.068542,179.045410 271.068542,168.904175 
	C263.148071,168.904175 255.738266,168.904175 247.985321,168.904175 
	C247.985321,166.234482 247.985321,163.996613 247.985321,161.403641 
	C266.238647,161.403641 284.433136,161.403641 303.078491,161.403641 
	C303.078491,163.605667 303.078491,165.940536 303.078491,168.729004 
	C295.505707,168.729004 288.093750,168.729004 280.118530,168.729004 
	C280.118530,176.255051 280.118530,183.351669 280.118561,190.938171 
z"/>
<path fill="#FEFEFE" opacity="1.000000" stroke="none" 
	d="
M152.033432,177.792053 
	C151.985489,164.999725 151.986954,164.886780 164.140015,165.043716 
	C171.011948,165.132446 177.878281,165.661850 184.746872,165.998337 
	C188.563156,166.185287 189.581802,169.082138 189.874329,172.005661 
	C190.181992,175.080246 189.348709,177.885880 185.364166,178.179474 
	C184.116180,178.271423 182.889648,178.977585 181.660904,178.956635 
	C171.793320,178.788437 161.927536,178.513443 152.033432,177.792053 
z"/>
</svg>